<svg width="40" height="40" viewBox="0 0 40 40" fill="none" xmlns="http://www.w3.org/2000/svg">
<mask id="mask0_1544_1440" style="mask-type:luminance" maskUnits="userSpaceOnUse" x="0" y="0" width="40" height="40">
<path d="M40 0H0V40H40V0Z" fill="white"/>
</mask>
<g mask="url(#mask0_1544_1440)">
<path d="M20.3231 19.5187C20.5236 19.6526 20.7592 19.7241 21.0003 19.7241C21.1606 19.7246 21.3194 19.6934 21.4676 19.6323C21.6158 19.5711 21.7504 19.4813 21.8638 19.3679C21.9771 19.2545 22.0668 19.1197 22.1278 18.9715C22.1888 18.8232 22.2199 18.6644 22.2193 18.5041C22.2191 18.263 22.1474 18.0274 22.0133 17.8271C21.8793 17.6268 21.6888 17.4707 21.4661 17.3786C21.2433 17.2865 20.9982 17.2625 20.7618 17.3096C20.5254 17.3568 20.3083 17.4729 20.1379 17.6435C19.9676 17.814 19.8516 18.0312 19.8046 18.2676C19.7577 18.5041 19.7818 18.7491 19.8741 18.9718C19.9664 19.1945 20.1227 19.3848 20.3231 19.5187Z" fill="#6E7191"/>
<path d="M28.6233 19.7241C28.3822 19.7241 28.1466 19.6526 27.9462 19.5187C27.7457 19.3848 27.5895 19.1945 27.4972 18.9718C27.4049 18.7491 27.3807 18.5041 27.4277 18.2676C27.4746 18.0312 27.5906 17.814 27.761 17.6435C27.9314 17.4729 28.1485 17.3568 28.3849 17.3096C28.6213 17.2625 28.8663 17.2865 29.0891 17.3786C29.3119 17.4707 29.5023 17.6268 29.6364 17.8271C29.7704 18.0274 29.8421 18.263 29.8423 18.5041C29.843 18.6644 29.8119 18.8232 29.7509 18.9715C29.6899 19.1197 29.6001 19.2545 29.4868 19.3679C29.3735 19.4813 29.2389 19.5711 29.0906 19.6323C28.9424 19.6934 28.7836 19.7246 28.6233 19.7241Z" fill="#6E7191"/>
<path d="M12.6981 19.5187C12.8986 19.6526 13.1342 19.7241 13.3753 19.7241C13.5356 19.7246 13.6944 19.6934 13.8426 19.6323C13.9908 19.5711 14.1254 19.4813 14.2388 19.3679C14.3521 19.2545 14.4418 19.1197 14.5028 18.9715C14.5638 18.8232 14.5949 18.6644 14.5943 18.5041C14.5941 18.263 14.5224 18.0274 14.3883 17.8271C14.2543 17.6268 14.0638 17.4707 13.8411 17.3786C13.6183 17.2865 13.3732 17.2625 13.1368 17.3096C12.9004 17.3568 12.6833 17.4729 12.5129 17.6435C12.3426 17.814 12.2266 18.0312 12.1796 18.2676C12.1327 18.5041 12.1568 18.7491 12.2491 18.9718C12.3414 19.1945 12.4977 19.3848 12.6981 19.5187Z" fill="#6E7191"/>
<path fill-rule="evenodd" clip-rule="evenodd" d="M19.4147 34.4959C19.9124 34.724 20.4531 34.8428 21.0005 34.8443C21.5486 34.8433 22.0901 34.7248 22.5885 34.4968C23.0868 34.2687 23.5305 33.9364 23.8895 33.5223L26.2895 30.7683C26.3309 30.7248 26.3807 30.6902 26.4359 30.6664C26.491 30.6427 26.5504 30.6304 26.6105 30.6303H27.4105C34.4945 30.6303 38.2285 27.4223 38.2285 21.3363V14.4513C38.2285 8.36523 34.4945 5.15723 27.4105 5.15723H14.5895C7.50548 5.15723 3.77148 8.36523 3.77148 14.4513V21.3363C3.77148 29.0753 7.90648 30.6313 14.5945 30.6303H15.3945C15.5103 30.6524 15.6198 30.6995 15.7155 30.7683L18.1155 33.5223C18.474 33.9359 18.9171 34.2679 19.4147 34.4959ZM6.17148 14.4513C6.17148 9.52223 8.85148 7.22223 14.5895 7.22223H27.3965C33.1345 7.22223 35.8105 9.52223 35.8105 14.4513V21.3363C35.8105 26.2653 33.1345 28.5653 27.3965 28.5653H26.5965C26.1756 28.5587 25.7581 28.6411 25.3714 28.8073C24.9846 28.9734 24.6374 29.2195 24.3525 29.5293L21.9525 32.2833C21.8394 32.4309 21.6939 32.5505 21.5272 32.6329C21.3604 32.7152 21.1769 32.758 20.991 32.758C20.805 32.758 20.6216 32.7152 20.4548 32.6329C20.2881 32.5505 20.1425 32.4309 20.0295 32.2833L17.6295 29.5293C17.0384 28.9239 16.2315 28.5773 15.3855 28.5653H14.5855C8.65548 28.5653 6.17148 27.5603 6.17148 21.3363V14.4513Z" fill="#6E7191"/>
</g>
</svg>
