<svg width="25" height="24" viewBox="0 0 25 24" fill="none" xmlns="http://www.w3.org/2000/svg">
<path d="M5.61839 14.4656L4.7683 17.537L1.66123 17.6006C0.732678 15.9338 0.205986 14.0266 0.205986 12C0.205986 10.0403 0.69843 8.1922 1.57132 6.56494H1.57199L4.33815 7.05576L5.54989 9.71689C5.29628 10.4325 5.15804 11.2007 5.15804 12C5.15814 12.8675 5.32051 13.6987 5.61839 14.4656Z" fill="#FFCD4E"/>
<path d="M24.4145 9.79218C24.5547 10.5071 24.6279 11.2454 24.6279 12C24.6279 12.8461 24.5359 13.6714 24.3608 14.4675C23.7664 17.1766 22.2132 19.5422 20.0615 21.2162L20.0609 21.2156L16.5768 21.0435L16.0836 18.0643C17.5114 17.2539 18.6271 15.9857 19.2149 14.4675H12.6854V9.79218H19.3101H24.4145Z" fill="#4092FF"/>
<path d="M20.0608 21.2156L20.0615 21.2163C17.9689 22.8442 15.3106 23.8182 12.4169 23.8182C7.76672 23.8182 3.72371 21.3026 1.66125 17.6007L5.6184 14.4656C6.64961 17.1293 9.30448 19.0254 12.4169 19.0254C13.7547 19.0254 15.0081 18.6754 16.0836 18.0643L20.0608 21.2156Z" fill="#18C07A"/>
<path d="M20.2112 2.90259L16.2553 6.03699C15.1423 5.36364 13.8266 4.97465 12.417 4.97465C9.23406 4.97465 6.52953 6.95775 5.54999 9.71688L1.57204 6.56493H1.57137C3.60363 2.77273 7.69763 0.181824 12.417 0.181824C15.3798 0.181824 18.0964 1.20327 20.2112 2.90259Z" fill="#FF4747"/>
</svg>
