<svg width="8" height="8" viewBox="0 0 8 8" fill="none" xmlns="http://www.w3.org/2000/svg">
<path d="M4 0C2.31133 0 0.9375 1.37383 0.9375 3.0625C0.9375 3.60303 1.08031 4.13445 1.35048 4.5993C1.41376 4.70812 1.48366 4.81295 1.55978 4.9132L3.86694 8H4.13305L6.44022 4.91322C6.51633 4.81295 6.58622 4.70812 6.64952 4.59931C6.91969 4.13445 7.0625 3.60303 7.0625 3.0625C7.0625 1.37383 5.68867 0 4 0ZM4 4.07812C3.43998 4.07812 2.98438 3.62252 2.98438 3.0625C2.98438 2.50248 3.43998 2.04688 4 2.04688C4.56002 2.04688 5.01562 2.50248 5.01562 3.0625C5.01562 3.62252 4.56002 4.07812 4 4.07812Z" fill="white"/>
</svg>
