<svg width="20" height="21" viewBox="0 0 20 21" fill="none" xmlns="http://www.w3.org/2000/svg">
<g clip-path="url(#clip0_405_4055)">
<path d="M15.8333 8.83337V10.5C15.8333 12.0471 15.2188 13.5309 14.1248 14.6248C13.0308 15.7188 11.5471 16.3334 10 16.3334M10 16.3334C8.4529 16.3334 6.96917 15.7188 5.87521 14.6248C4.78125 13.5309 4.16667 12.0471 4.16667 10.5V8.83337M10 16.3334V19.6667M6.66667 19.6667H13.3333M10 1.33337C9.33696 1.33337 8.70107 1.59677 8.23223 2.06561C7.76339 2.53445 7.5 3.17033 7.5 3.83337V10.5C7.5 11.1631 7.76339 11.799 8.23223 12.2678C8.70107 12.7366 9.33696 13 10 13C10.663 13 11.2989 12.7366 11.7678 12.2678C12.2366 11.799 12.5 11.1631 12.5 10.5V3.83337C12.5 3.17033 12.2366 2.53445 11.7678 2.06561C11.2989 1.59677 10.663 1.33337 10 1.33337Z" stroke="#A0AEC0" stroke-width="2" stroke-linecap="round" stroke-linejoin="round"/>
</g>
<defs>
<clipPath id="clip0_405_4055">
<rect width="20" height="20" fill="white" transform="translate(0 0.5)"/>
</clipPath>
</defs>
</svg>
